<svg width="68" height="68" viewBox="0 0 68 68" fill="none" xmlns="http://www.w3.org/2000/svg">
    <circle cx="34.3862" cy="33.7848" r="33.6138" fill="#FDAA5D"/>
    <path d="M38.0638 42.0454C36.5224 42.0439 35.2717 43.2923 35.2702 44.8336C35.2686 46.375 36.517 47.6258 38.0584 47.6273C39.5998 47.6288 40.8506 46.3804 40.8521 44.8391V44.8364C40.8506 43.2966 39.6035 42.0484 38.0638 42.0454Z" fill="white"/>
    <path d="M43.014 28.6808C42.9472 28.6679 42.8794 28.6613 42.8114 28.6612H25.818L25.5489 26.8607C25.3812 25.6649 24.3584 24.7752 23.1509 24.7748H20.9628C20.3682 24.7748 19.8862 25.2568 19.8862 25.8514C19.8862 26.446 20.3682 26.9279 20.9628 26.9279H23.1536C23.2905 26.9269 23.4063 27.0289 23.4227 27.1648L25.0806 38.5278C25.3079 39.9717 26.5499 41.0369 28.0115 41.0415H39.2103C40.6176 41.0434 41.8316 40.0543 42.1143 38.6758L43.8664 29.9423C43.9794 29.3585 43.5977 28.7938 43.014 28.6808Z" fill="white"/>
    <path d="M31.2267 44.7169C31.1611 43.2207 29.9264 42.0429 28.4287 42.0481C26.8886 42.1103 25.6905 43.4093 25.7527 44.9495C25.8124 46.4272 27.0146 47.6018 28.4933 47.6273H28.5606C30.1005 47.5598 31.2941 46.2568 31.2267 44.7169Z" fill="white"/>
    <circle cx="43.8862" cy="29.2011" r="6" fill="#EA7173" stroke="#F3FFF9" stroke-width="2"/>
</svg>
