<svg width="37" height="36" viewBox="0 0 37 36" fill="none" xmlns="http://www.w3.org/2000/svg">
    <path d="M27.6376 11.3161H26.2248C26.0447 11.3161 25.8719 11.3877 25.7445 11.5151C25.6171 11.6424 25.5456 11.8152 25.5456 11.9954V18.2988C25.2982 18.1917 25.0336 18.1296 24.7644 18.1154L23.338 3.30102C23.2958 2.86203 23.0914 2.45454 22.7649 2.15813C22.4383 1.86171 22.013 1.69766 21.572 1.698H14.4671C14.0261 1.69766 13.6007 1.86171 13.2742 2.15813C12.9476 2.45454 12.7433 2.86203 12.701 3.30102L11.2746 18.1154C11.0054 18.1296 10.7409 18.1917 10.4935 18.2988V11.9954C10.4935 11.8152 10.4219 11.6424 10.2945 11.5151C10.1672 11.3877 9.99439 11.3161 9.81424 11.3161H8.40141C8.22127 11.3161 8.0485 11.3877 7.92111 11.5151C7.79373 11.6424 7.72217 11.8152 7.72217 11.9954C7.72217 12.1755 7.79373 12.3483 7.92111 12.4757C8.0485 12.603 8.22127 12.6746 8.40141 12.6746H9.135V20.3772C9.1368 20.9778 9.37661 21.5531 9.80188 21.9771C10.2271 22.401 10.8032 22.6391 11.4037 22.6391H16.1584V26.7146C16.1584 26.8947 16.23 27.0675 16.3573 27.1949C16.4847 27.3223 16.6575 27.3938 16.8376 27.3938H17.4354V29.2074L12.5788 33.1063C12.509 33.1624 12.451 33.2316 12.4081 33.3102C12.3652 33.3887 12.3382 33.475 12.3287 33.564C12.3193 33.653 12.3275 33.743 12.3529 33.8288C12.3783 33.9146 12.4205 33.9946 12.4769 34.064C12.5899 34.203 12.7533 34.2916 12.9314 34.3107C13.1095 34.3298 13.2879 34.2778 13.4278 34.1659L17.4354 30.9463V33.6633C17.4354 33.8434 17.5069 34.0162 17.6343 34.1436C17.7617 34.271 17.9345 34.3425 18.1146 34.3425C18.2948 34.3425 18.4675 34.271 18.5949 34.1436C18.7223 34.0162 18.7939 33.8434 18.7939 33.6633V30.9463L22.8014 34.1659C22.9209 34.2618 23.0693 34.3145 23.2225 34.3154C23.324 34.3157 23.4243 34.2933 23.516 34.2498C23.6077 34.2063 23.6884 34.1428 23.7524 34.064C23.8088 33.9946 23.8509 33.9146 23.8763 33.8288C23.9018 33.743 23.91 33.653 23.9005 33.564C23.891 33.475 23.8641 33.3887 23.8212 33.3102C23.7783 33.2316 23.7202 33.1624 23.6505 33.1063L18.8142 29.2074V27.421H19.4188C19.5989 27.421 19.7717 27.3495 19.8991 27.2221C20.0265 27.0947 20.098 26.9219 20.098 26.7418V22.6663H24.6354C24.935 22.6663 25.2317 22.607 25.5083 22.4917C25.7849 22.3764 26.0359 22.2075 26.2468 21.9946C26.4578 21.7818 26.6244 21.5293 26.7372 21.2517C26.8501 20.9741 26.9067 20.6769 26.9041 20.3772V12.6746H27.6376C27.8178 12.6746 27.9906 12.603 28.1179 12.4757C28.2453 12.3483 28.3169 12.1755 28.3169 11.9954C28.3169 11.8152 28.2453 11.6424 28.1179 11.5151C27.9906 11.3877 27.8178 11.3161 27.6376 11.3161ZM14.0527 3.43007C14.0629 3.32739 14.111 3.23219 14.1876 3.1631C14.2642 3.094 14.3639 3.05599 14.4671 3.05649H21.572C21.6752 3.05599 21.7748 3.094 21.8514 3.1631C21.9281 3.23219 21.9762 3.32739 21.9863 3.43007L23.3991 18.1086H12.6399L14.0527 3.43007ZM18.7395 26.0625H17.5373V22.6663H18.7395V26.0625ZM24.6354 21.3078H11.4037C11.278 21.3187 11.1514 21.3033 11.032 21.2627C10.9126 21.2221 10.8029 21.1571 10.7099 21.0718C10.617 20.9865 10.5427 20.8829 10.4919 20.7674C10.4412 20.6519 10.4149 20.5272 10.4149 20.401C10.4149 20.2749 10.4412 20.1501 10.4919 20.0346C10.5427 19.9191 10.617 19.8155 10.7099 19.7302C10.8029 19.645 10.9126 19.5799 11.032 19.5393C11.1514 19.4987 11.278 19.4833 11.4037 19.4942H24.6354C24.7611 19.4833 24.8876 19.4987 25.0071 19.5393C25.1265 19.5799 25.2362 19.645 25.3291 19.7302C25.4221 19.8155 25.4963 19.9191 25.5471 20.0346C25.5979 20.1501 25.6241 20.2749 25.6241 20.401C25.6241 20.5272 25.5979 20.6519 25.5471 20.7674C25.4963 20.8829 25.4221 20.9865 25.3291 21.0718C25.2362 21.1571 25.1265 21.2221 25.0071 21.2627C24.8876 21.3033 24.7611 21.3187 24.6354 21.3078Z" fill="white"/>
</svg>
